<svg width="24" height="24" viewBox="0 0 24 24" fill="none" xmlns="http://www.w3.org/2000/svg">
<rect width="24" height="24" rx="12" fill="#25D366"/>
<path d="M16.92 14.15C16.59 13.98 14.99 13.16 14.71 13.06C14.43 12.96 14.23 12.91 14.04 13.2C13.85 13.49 13.3 14.15 13.13 14.34C12.96 14.53 12.82 14.55 12.54 14.4C12.26 14.25 11.2 13.89 10 12.83C9.12 11.96 8.54 10.92 8.37 10.64C8.21 10.36 8.35 10.22 8.5 10.05C8.65 9.88 9.07 9.36 9.23 9.1C9.4 8.84 9.49 8.7 9.44 8.53C9.4 8.36 9.3 8.01 9.22 7.84C9.15 7.67 9.08 7.54 8.99 7.52C8.91 7.5 8.78 7.5 8.65 7.5C8.52 7.5 8.33 7.54 8.17 7.73C8.01 7.92 7.59 8.33 7.59 9.15C7.59 9.97 8.19 10.76 8.28 10.87C8.37 10.99 9.53 12.63 11.16 13.78C12.51 14.73 13.59 15.06 14.02 15.19C14.44 15.31 14.81 15.29 15.1 14.99C15.39 14.7 15.89 14.15 16.05 13.89C16.21 13.63 16.35 13.53 16.52 13.53C16.69 13.53 16.82 13.6 16.92 13.69C17.02 13.78 17.02 13.86 16.92 14.15ZM12.02 5.25C8.07 5.25 4.85 8.47 4.85 12.42C4.85 13.91 5.3 15.35 6.08 16.57L4.99 19.01L7.54 17.92C8.75 18.66 10.35 19.06 12.02 19.06C15.97 19.06 19.19 15.84 19.19 11.89C19.19 7.94 15.97 4.72 12.02 4.72C12.02 4.72 12.02 5.25 12.02 5.25ZM12.02 2.25C17.65 2.25 22.19 6.79 22.19 12.42C22.19 17.29 18.23 21.2 13.43 21.31L12.02 21.34L7.86 22.44L2.99 21.13L4.31 16.7L4.25 16.65C3.3 15.1 2.75 13.3 2.75 11.42C2.75 5.79 7.29 1.25 12.92 1.25L12.02 2.25Z" fill="white"/>
</svg>